# xmcd CD database file
#
# Track frame offsets:
#	150
#	22700
#	45948
#	61077
#	79806
#	104786
#	124326
#	144611
#	167551
#	187032
#	205897
#	224634
#	244926
#	267208
#
# Disc length: 3801 seconds
#
# Revision: 7
# Processed by: cddbd v1.5.2PL0 Copyright (c) Steve Scherf et al.
# Submitted via: CDex 2.12
#
DISCID=cb0ed70e
DTITLE=Lionel Richie - Tuskegee
DYEAR=2012
DGENRE=Pop
TTITLE0=Lionel Richie feat. Blake Shelton - You are
TTITLE1=Lionel Richie feat. Rasmus Seebach - Say You, Say Me
TTITLE2=Lionel Richie feat. Darius Rucker - Stuck on You
TTITLE3=Lionel Richie feat. Little Big Town - Deep River Woman
TTITLE4=Lionel Richie feat. Kenny Chesney - My Love
TTITLE5=Lionel Richie feat. Rascal Flatts and Stefanie Heinzmann - Dancing on the Ceiling
TTITLE6=Lionel Richie feat. Jennifer Nettles - Hello
TTITLE7=Lionel Richie feat. Jill Johnson - Sail on
TTITLE8=Lionel Richie feat. Shania Twain - Endless Love
TTITLE9=Lionel Richie feat. Billy Currington - Just for You
TTITLE10=Lionel Richie feat. Kenny Rodgers - Lady
TTITLE11=Lionel Richie feat. Willie Nelson - Easy
TTITLE12=Lionel Richie feat. Jimmy Buffett - All Night Long
TTITLE13=Lionel Richie feat. Cassandra Steen - Angel
EXTD=YEAR: 2012
EXTT0=
EXTT1=
EXTT2=
EXTT3=
EXTT4=
EXTT5=
EXTT6=
EXTT7=
EXTT8=
EXTT9=
EXTT10=
EXTT11=
EXTT12=
EXTT13=
PLAYORDER=
